<svg xmlns="http://www.w3.org/2000/svg" viewBox="0 0 375 812" width="375" height="812">
  <defs>
    <filter id="shadow" x="-2%" y="-2%" width="104%" height="104%">
      <feDropShadow dx="0" dy="2" stdDeviation="4" flood-color="#000" flood-opacity="0.08"/>
    </filter>
  </defs>

  <!-- Background -->
  <rect width="375" height="812" fill="#F5F5F5" rx="20"/>

  <!-- Top bar -->
  <rect width="375" height="96" fill="#FFFFFF" filter="url(#shadow)"/>
  <polyline points="20,66 32,54" fill="none" stroke="#4A90D9" stroke-width="2.5" stroke-linecap="round"/>
  <line x1="20" y1="66" x2="32" y2="78" stroke="#4A90D9" stroke-width="2.5" stroke-linecap="round"/>
  <text x="48" y="72" font-family="system-ui, sans-serif" font-size="20" font-weight="700" fill="#333">Grandpa</text>

  <!-- Tab bar -->
  <rect x="0" y="96" width="375" height="48" fill="#FFFFFF"/>
  <text x="40" y="125" font-family="system-ui, sans-serif" font-size="13" fill="#888" text-anchor="middle">Overview</text>
  <text x="110" y="125" font-family="system-ui, sans-serif" font-size="13" fill="#888" text-anchor="middle">Meds</text>
  <text x="185" y="125" font-family="system-ui, sans-serif" font-size="13" fill="#888" text-anchor="middle">Calendar</text>
  <text x="260" y="125" font-family="system-ui, sans-serif" font-size="13" fill="#888" text-anchor="middle">Journal</text>
  <text x="335" y="125" font-family="system-ui, sans-serif" font-size="13" font-weight="600" fill="#4A90D9" text-anchor="middle">Docs</text>
  <rect x="310" y="138" width="50" height="3" rx="1.5" fill="#4A90D9"/>
  <line x1="0" y1="144" x2="375" y2="144" stroke="#EEE" stroke-width="1"/>

  <!-- Search bar -->
  <rect x="16" y="160" width="343" height="44" rx="12" fill="#FFFFFF" filter="url(#shadow)"/>
  <circle cx="40" cy="182" r="10" fill="none" stroke="#AAA" stroke-width="1.5"/>
  <line x1="47" y1="189" x2="52" y2="194" stroke="#AAA" stroke-width="1.5" stroke-linecap="round"/>
  <text x="64" y="187" font-family="system-ui, sans-serif" font-size="15" fill="#AAA">Search documents...</text>

  <!-- Filter chips -->
  <rect x="16" y="218" width="42" height="32" rx="16" fill="#4A90D9"/>
  <text x="37" y="239" font-family="system-ui, sans-serif" font-size="13" font-weight="500" fill="#FFFFFF" text-anchor="middle">All</text>

  <rect x="66" y="218" width="90" height="32" rx="16" fill="#FFFFFF" filter="url(#shadow)"/>
  <text x="111" y="239" font-family="system-ui, sans-serif" font-size="13" fill="#666" text-anchor="middle">Lab Results</text>

  <rect x="164" y="218" width="100" height="32" rx="16" fill="#FFFFFF" filter="url(#shadow)"/>
  <text x="214" y="239" font-family="system-ui, sans-serif" font-size="13" fill="#666" text-anchor="middle">Prescriptions</text>

  <rect x="272" y="218" width="82" height="32" rx="16" fill="#FFFFFF" filter="url(#shadow)"/>
  <text x="313" y="239" font-family="system-ui, sans-serif" font-size="13" fill="#666" text-anchor="middle">Insurance</text>

  <!-- 10 recent label -->
  <text x="16" y="275" font-family="system-ui, sans-serif" font-size="12" fill="#888">10 most recent</text>

  <!-- Document card 1 -->
  <rect x="16" y="290" width="343" height="88" rx="12" fill="#FFFFFF" filter="url(#shadow)"/>
  <!-- Thumbnail -->
  <rect x="28" y="302" width="64" height="64" rx="8" fill="#E8F0FE"/>
  <rect x="40" y="318" width="40" height="32" rx="4" fill="#D0E0F5"/>
  <text x="60" y="338" font-family="system-ui, sans-serif" font-size="10" fill="#4A90D9" text-anchor="middle">PDF</text>
  <!-- Content -->
  <text x="104" y="320" font-family="system-ui, sans-serif" font-size="15" font-weight="500" fill="#333">Blood Panel Results</text>
  <text x="104" y="340" font-family="system-ui, sans-serif" font-size="12" fill="#888">Mar 20</text>
  <rect x="144" y="328" width="68" height="20" rx="10" fill="#E8F4E8"/>
  <text x="178" y="342" font-family="system-ui, sans-serif" font-size="10" font-weight="500" fill="#5CB85C" text-anchor="middle">Lab Result</text>
  <text x="104" y="360" font-family="system-ui, sans-serif" font-size="12" fill="#888">From: Dr. Visit - Mar 26</text>
  <!-- Arrow -->
  <path d="M335 339 L343 339 L339 343 Z" fill="#CCC"/>
  <path d="M335 339 L343 339 L339 335 Z" fill="#CCC"/>

  <!-- Document card 2 -->
  <rect x="16" y="390" width="343" height="88" rx="12" fill="#FFFFFF" filter="url(#shadow)"/>
  <!-- Thumbnail (image) -->
  <rect x="28" y="402" width="64" height="64" rx="8" fill="#FFF3E0"/>
  <rect x="40" y="418" width="40" height="32" rx="4" fill="#FFE0B2"/>
  <text x="60" y="438" font-family="system-ui, sans-serif" font-size="10" fill="#F0AD4E" text-anchor="middle">IMG</text>
  <!-- Content -->
  <text x="104" y="420" font-family="system-ui, sans-serif" font-size="15" font-weight="500" fill="#333">Rx - Lisinopril</text>
  <text x="104" y="440" font-family="system-ui, sans-serif" font-size="12" fill="#888">Mar 18</text>
  <rect x="144" y="428" width="84" height="20" rx="10" fill="#E8F0FE"/>
  <text x="186" y="442" font-family="system-ui, sans-serif" font-size="10" font-weight="500" fill="#4A90D9" text-anchor="middle">Prescription</text>
  <text x="104" y="460" font-family="system-ui, sans-serif" font-size="12" fill="#888">From: Cardiology Notes</text>
  <!-- Arrow -->
  <path d="M335 439 L343 439 L339 443 Z" fill="#CCC"/>
  <path d="M335 439 L343 439 L339 435 Z" fill="#CCC"/>

  <!-- Document card 3 -->
  <rect x="16" y="490" width="343" height="88" rx="12" fill="#FFFFFF" filter="url(#shadow)"/>
  <!-- Thumbnail -->
  <rect x="28" y="502" width="64" height="64" rx="8" fill="#F3E5F5"/>
  <rect x="40" y="518" width="40" height="32" rx="4" fill="#E1BEE7"/>
  <text x="60" y="538" font-family="system-ui, sans-serif" font-size="10" fill="#9C27B0" text-anchor="middle">PDF</text>
  <!-- Content -->
  <text x="104" y="520" font-family="system-ui, sans-serif" font-size="15" font-weight="500" fill="#333">Insurance Card</text>
  <text x="104" y="540" font-family="system-ui, sans-serif" font-size="12" fill="#888">Feb 15</text>
  <rect x="144" y="528" width="68" height="20" rx="10" fill="#F3E5F5"/>
  <text x="178" y="542" font-family="system-ui, sans-serif" font-size="10" font-weight="500" fill="#9C27B0" text-anchor="middle">Insurance</text>
  <text x="104" y="560" font-family="system-ui, sans-serif" font-size="12" fill="#888">From: Insurance Update</text>
  <!-- Arrow -->
  <path d="M335 539 L343 539 L339 543 Z" fill="#CCC"/>
  <path d="M335 539 L343 539 L339 535 Z" fill="#CCC"/>

  <!-- Document card 4 -->
  <rect x="16" y="590" width="343" height="88" rx="12" fill="#FFFFFF" filter="url(#shadow)"/>
  <!-- Thumbnail -->
  <rect x="28" y="602" width="64" height="64" rx="8" fill="#E8F0FE"/>
  <rect x="40" y="618" width="40" height="32" rx="4" fill="#D0E0F5"/>
  <text x="60" y="638" font-family="system-ui, sans-serif" font-size="10" fill="#4A90D9" text-anchor="middle">PDF</text>
  <!-- Content -->
  <text x="104" y="620" font-family="system-ui, sans-serif" font-size="15" font-weight="500" fill="#333">EKG Report</text>
  <text x="104" y="640" font-family="system-ui, sans-serif" font-size="12" fill="#888">Mar 26</text>
  <rect x="144" y="628" width="68" height="20" rx="10" fill="#E8F4E8"/>
  <text x="178" y="642" font-family="system-ui, sans-serif" font-size="10" font-weight="500" fill="#5CB85C" text-anchor="middle">Lab Result</text>
  <text x="104" y="660" font-family="system-ui, sans-serif" font-size="12" fill="#888">From: Annual Physical</text>
  <!-- Arrow -->
  <path d="M335 639 L343 639 L339 643 Z" fill="#CCC"/>
  <path d="M335 639 L343 639 L339 635 Z" fill="#CCC"/>

  <!-- Load more button -->
  <text x="187" y="710" font-family="system-ui, sans-serif" font-size="14" font-weight="500" fill="#4A90D9" text-anchor="middle">Load more</text>

  <!-- Bottom nav -->
  <rect x="0" y="732" width="375" height="80" fill="#FFFFFF" filter="url(#shadow)"/>
  <rect x="40" y="744" width="24" height="18" rx="3" fill="none" stroke="#AAA" stroke-width="1.5"/>
  <text x="52" y="779" font-family="system-ui, sans-serif" font-size="11" fill="#AAA" text-anchor="middle">Home</text>
  <rect x="164" y="744" width="22" height="16" rx="3" fill="none" stroke="#AAA" stroke-width="1.5"/>
  <text x="175" y="779" font-family="system-ui, sans-serif" font-size="11" fill="#AAA" text-anchor="middle">Devices</text>
  <circle cx="298" cy="753" r="9" fill="none" stroke="#AAA" stroke-width="1.5"/>
  <text x="298" y="779" font-family="system-ui, sans-serif" font-size="11" fill="#AAA" text-anchor="middle">Settings</text>

  <rect x="140" y="800" width="95" height="5" rx="2.5" fill="#DDD"/>
</svg>
