<svg xmlns="http://www.w3.org/2000/svg" viewBox="0 0 375 812" width="375" height="812">
  <defs>
    <filter id="shadow" x="-2%" y="-2%" width="104%" height="104%">
      <feDropShadow dx="0" dy="2" stdDeviation="4" flood-color="#000" flood-opacity="0.08"/>
    </filter>
  </defs>

  <!-- Background -->
  <rect width="375" height="812" fill="#F5F5F5" rx="20"/>

  <!-- Top bar -->
  <rect width="375" height="96" fill="#FFFFFF" filter="url(#shadow)"/>
  <polyline points="20,66 32,54" fill="none" stroke="#4A90D9" stroke-width="2.5" stroke-linecap="round"/>
  <line x1="20" y1="66" x2="32" y2="78" stroke="#4A90D9" stroke-width="2.5" stroke-linecap="round"/>
  <text x="48" y="66" font-family="system-ui, sans-serif" font-size="18" font-weight="700" fill="#333">Blood Panel</text>
  <text x="48" y="84" font-family="system-ui, sans-serif" font-size="12" fill="#888">Mar 20, 2026</text>
  <!-- More options -->
  <circle cx="340" cy="60" r="2" fill="#888"/>
  <circle cx="340" cy="68" r="2" fill="#888"/>
  <circle cx="340" cy="76" r="2" fill="#888"/>

  <!-- Document preview area -->
  <rect x="16" y="112" width="343" height="280" rx="12" fill="#FFFFFF" filter="url(#shadow)"/>
  <rect x="32" y="128" width="311" height="248" rx="8" fill="#F8F8F8"/>
  <!-- Simulated document content -->
  <text x="52" y="158" font-family="system-ui, sans-serif" font-size="14" font-weight="700" fill="#333">Quest Diagnostics</text>
  <text x="52" y="176" font-family="system-ui, sans-serif" font-size="10" fill="#888">Comprehensive Metabolic Panel</text>
  <line x1="52" y1="186" x2="311" y2="186" stroke="#DDD" stroke-width="1"/>
  <text x="52" y="204" font-family="system-ui, sans-serif" font-size="10" fill="#444">Patient: Grandpa Nguyen</text>
  <text x="52" y="220" font-family="system-ui, sans-serif" font-size="10" fill="#444">DOB: 05/12/1945</text>
  <text x="52" y="236" font-family="system-ui, sans-serif" font-size="10" fill="#444">Collection: 03/20/2026</text>
  <line x1="52" y1="248" x2="311" y2="248" stroke="#DDD" stroke-width="1"/>
  <!-- Table header -->
  <text x="52" y="268" font-family="system-ui, sans-serif" font-size="9" font-weight="600" fill="#666">TEST</text>
  <text x="180" y="268" font-family="system-ui, sans-serif" font-size="9" font-weight="600" fill="#666">RESULT</text>
  <text x="240" y="268" font-family="system-ui, sans-serif" font-size="9" font-weight="600" fill="#666">RANGE</text>
  <!-- Data rows -->
  <text x="52" y="286" font-family="system-ui, sans-serif" font-size="9" fill="#444">Glucose</text>
  <text x="180" y="286" font-family="system-ui, sans-serif" font-size="9" fill="#333">105 mg/dL</text>
  <text x="240" y="286" font-family="system-ui, sans-serif" font-size="9" fill="#888">70-100</text>
  <text x="310" y="286" font-family="system-ui, sans-serif" font-size="9" fill="#F0AD4E">H</text>
  <text x="52" y="302" font-family="system-ui, sans-serif" font-size="9" fill="#444">BUN</text>
  <text x="180" y="302" font-family="system-ui, sans-serif" font-size="9" fill="#333">18 mg/dL</text>
  <text x="240" y="302" font-family="system-ui, sans-serif" font-size="9" fill="#888">7-20</text>
  <text x="52" y="318" font-family="system-ui, sans-serif" font-size="9" fill="#444">Creatinine</text>
  <text x="180" y="318" font-family="system-ui, sans-serif" font-size="9" fill="#333">1.1 mg/dL</text>
  <text x="240" y="318" font-family="system-ui, sans-serif" font-size="9" fill="#888">0.7-1.3</text>
  <text x="52" y="334" font-family="system-ui, sans-serif" font-size="9" fill="#444">Cholesterol</text>
  <text x="180" y="334" font-family="system-ui, sans-serif" font-size="9" fill="#333">210 mg/dL</text>
  <text x="240" y="334" font-family="system-ui, sans-serif" font-size="9" fill="#888">&lt;200</text>
  <text x="310" y="334" font-family="system-ui, sans-serif" font-size="9" fill="#F0AD4E">H</text>
  <!-- Zoom hint -->
  <rect x="284" y="344" width="48" height="24" rx="12" fill="rgba(0,0,0,0.6)"/>
  <text x="308" y="360" font-family="system-ui, sans-serif" font-size="10" fill="#FFFFFF" text-anchor="middle">Zoom</text>

  <!-- Extracted Text section -->
  <rect x="16" y="408" width="343" height="200" rx="12" fill="#FFFFFF" filter="url(#shadow)"/>
  <rect x="32" y="424" width="80" height="24" rx="6" fill="#E8F0FE"/>
  <text x="72" y="440" font-family="system-ui, sans-serif" font-size="12" font-weight="600" fill="#4A90D9" text-anchor="middle">OCR Text</text>
  <text x="128" y="440" font-family="system-ui, sans-serif" font-size="12" fill="#5CB85C">Auto-extracted</text>
  <line x1="32" y1="456" x2="343" y2="456" stroke="#F0F0F0" stroke-width="1"/>

  <text x="32" y="478" font-family="system-ui, sans-serif" font-size="13" fill="#444">
    <tspan x="32" dy="0" font-weight="600">Glucose: 105 mg/dL</tspan>
    <tspan x="32" dy="20" fill="#888">(Slightly elevated, range 70-100)</tspan>
    <tspan x="32" dy="24" font-weight="600">Cholesterol: 210 mg/dL</tspan>
    <tspan x="32" dy="20" fill="#888">(Slightly elevated, range &lt;200)</tspan>
    <tspan x="32" dy="24" font-weight="600">BUN: 18 mg/dL - Normal</tspan>
    <tspan x="32" dy="20" font-weight="600">Creatinine: 1.1 mg/dL - Normal</tspan>
  </text>

  <!-- Tags -->
  <rect x="16" y="624" width="343" height="56" rx="12" fill="#FFFFFF" filter="url(#shadow)"/>
  <text x="32" y="647" font-family="system-ui, sans-serif" font-size="13" font-weight="500" fill="#666">Tags:</text>
  <rect x="72" y="634" width="72" height="26" rx="13" fill="#E8F0FE"/>
  <text x="108" y="651" font-family="system-ui, sans-serif" font-size="12" fill="#4A90D9" text-anchor="middle">Lab Result</text>
  <rect x="152" y="634" width="56" height="26" rx="13" fill="#E8F4E8"/>
  <text x="180" y="651" font-family="system-ui, sans-serif" font-size="12" fill="#5CB85C" text-anchor="middle">Blood</text>
  <rect x="216" y="634" width="92" height="26" rx="13" fill="#FFF3E0"/>
  <text x="262" y="651" font-family="system-ui, sans-serif" font-size="12" fill="#F0AD4E" text-anchor="middle">Auto-detected</text>

  <!-- Linked event -->
  <rect x="16" y="696" width="343" height="40" rx="10" fill="#FFFFFF" filter="url(#shadow)"/>
  <rect x="24" y="704" width="4" height="24" rx="2" fill="#4A90D9"/>
  <text x="40" y="720" font-family="system-ui, sans-serif" font-size="13" fill="#4A90D9">Linked: Dr. Nguyen - Mar 26 at 2:00 PM</text>

  <!-- Bottom action buttons -->
  <rect x="16" y="750" width="167" height="44" rx="12" fill="#4A90D9"/>
  <text x="100" y="777" font-family="system-ui, sans-serif" font-size="15" font-weight="600" fill="#FFFFFF" text-anchor="middle">Share</text>
  <rect x="192" y="750" width="167" height="44" rx="12" fill="#5CB85C"/>
  <text x="275" y="777" font-family="system-ui, sans-serif" font-size="15" font-weight="600" fill="#FFFFFF" text-anchor="middle">Push to Tablet</text>

  <rect x="140" y="800" width="95" height="5" rx="2.5" fill="#DDD"/>
</svg>